<svg width="31" height="31" viewBox="0 0 31 31" fill="none" xmlns="http://www.w3.org/2000/svg">
<mask id="mask0_0_556" style="mask-type:alpha" maskUnits="userSpaceOnUse" x="0" y="0" width="31" height="31">
<rect x="0.171875" y="0.802734" width="30.1509" height="30.1509" fill="#D9D9D9"/>
</mask>
<g mask="url(#mask0_0_556)">
<path d="M8.3345 14.622L15.2441 3.31543L22.1537 14.622H8.3345ZM22.1537 28.4412C20.5833 28.4412 19.2485 27.8915 18.1492 26.7923C17.05 25.693 16.5004 24.3582 16.5004 22.7879C16.5004 21.2175 17.05 19.8827 18.1492 18.7835C19.2485 17.6842 20.5833 17.1346 22.1537 17.1346C23.724 17.1346 25.0588 17.6842 26.1581 18.7835C27.2573 19.8827 27.8069 21.2175 27.8069 22.7879C27.8069 24.3582 27.2573 25.693 26.1581 26.7923C25.0588 27.8915 23.724 28.4412 22.1537 28.4412ZM3.9375 27.813V17.7627H13.9878V27.813H3.9375Z" fill="#1259D7"/>
</g>
</svg>
